<svg xmlns="http://www.w3.org/2000/svg" version="1.1" xmlns:xlink="http://www.w3.org/1999/xlink" width="512" height="512"><svg width="512" height="512" viewBox="0 0 512 512" fill="none" xmlns="http://www.w3.org/2000/svg">
<rect width="512" height="512" fill="#003087"></rect>
<path fill-rule="evenodd" clip-rule="evenodd" d="M134.59 224.834H193.702V224.83C211.991 224.83 227.142 237.219 227.142 256.034C227.142 274.85 211.912 287.163 193.702 287.163H134.59V224.834ZM155.104 272.188H187.805C197.637 272.188 206.195 266.649 206.195 256.038C206.195 245.428 197.72 239.783 187.805 239.783H155.104V272.188ZM33.2995 256.038C33.2995 274.85 48.5193 287.166 66.7397 287.166H123.161V248.515H80.3329V262.191H102.56V272.188H72.6364C62.8085 272.188 54.2465 266.555 54.2465 256.038C54.2465 245.521 62.8085 239.783 72.6364 239.783H123.161V224.834H66.7397C48.4363 224.834 33.2995 237.053 33.2995 256.038ZM339.047 224.834H318.446V287.166H389.748V272.188H339.047V224.834ZM424.829 247.732H462.2V247.736C473.659 247.736 482.971 255.677 482.971 267.489C482.971 279.3 473.659 287.166 462.2 287.166H400.034V272.794H455.626C458.778 272.794 462.117 272.022 462.117 268.174C462.117 264.326 458.861 263.565 455.626 263.565H418.168C407.399 263.565 398.93 255.014 398.93 244.158C398.93 233.302 407.301 224.834 418.168 224.834H480.836V239.181H424.829C422.005 239.181 419.531 240.371 419.531 243.458C419.531 246.545 422.186 247.732 424.829 247.732ZM235.293 287.166H307.02V272.188H255.883V262.191H307.02V248.515H255.883V239.783H307.02V224.834H235.293V287.166Z" fill="white"></path>
</svg><style>@media (prefers-color-scheme: light) { :root { filter: none; } }
@media (prefers-color-scheme: dark) { :root { filter: none; } }
</style></svg>